<?xml version="1.0" ?><svg viewBox="0 0 24 24" xmlns="http://www.w3.org/2000/svg"><title/><g id="Linux"><path d="M20.93,19.07a3.72,3.72,0,0,1-.57-.43c-.09-.09,0-.5,0-.72a1.45,1.45,0,0,0-.2-1.17.91.91,0,0,0-.16-.12c0-.2,0-.41,0-.64a9.84,9.84,0,0,0-2.7-6.62A4.42,4.42,0,0,1,16,7V6.77C16,5.39,16,2.51,14.5,1A3.39,3.39,0,0,0,12,0C9.9,0,8.5,1,8.5,6A8,8,0,0,1,7.31,9.68c-.27.52-.54,1.06-.78,1.63A24.32,24.32,0,0,0,5,16.1a1.59,1.59,0,0,0-.78,1.2l-.08.33a2.78,2.78,0,0,1-.54.14C3,17.89,2,18.09,2,19a3.82,3.82,0,0,0,.08.73A3.21,3.21,0,0,1,2,21.38a.49.49,0,0,0,0,.13C2,22.7,3.87,22.86,5,23l.44,0a4.52,4.52,0,0,1,.79.32A5.82,5.82,0,0,0,8.5,24a1.17,1.17,0,0,0,.86-.39l.05,0A5.94,5.94,0,0,1,12,23h3.06a1.33,1.33,0,0,0,.29.55A1.48,1.48,0,0,0,16.5,24,3.2,3.2,0,0,0,19,22.68l.32-.33a3.54,3.54,0,0,1,1.19-.59c.72-.26,1.46-.53,1.46-1.26S21.4,19.39,20.93,19.07ZM13,3c.58,0,1,.62,1,1.48s-.33,1.34-.81,1.45a.82.82,0,0,0,.29-.68c0-.41-.22-.75-.48-.75s-.48.33-.48.75a.82.82,0,0,0,.29.68c-.48-.12-.81-.7-.81-1.45S12.42,3,13,3Zm.44,3.88A5.82,5.82,0,0,1,11,8,3.74,3.74,0,0,1,9.5,7a3.07,3.07,0,0,1,2-1A3.91,3.91,0,0,1,13.44,6.88ZM10,3c.58,0,1,.62,1,1.48s-.33,1.33-.81,1.45a.82.82,0,0,0,.29-.68c0-.41-.22-.75-.48-.75s-.48.33-.48.75a.82.82,0,0,0,.29.68C9.33,5.81,9,5.24,9,4.48S9.42,3,10,3ZM8.77,22.71c-.06.19-.15.29-.27.29a5.14,5.14,0,0,1-1.87-.6,4.44,4.44,0,0,0-1-.4L5.07,22c-1.49-.12-1.95-.3-2.05-.44a4.14,4.14,0,0,0,.05-2A3.36,3.36,0,0,1,3,19a2.24,2.24,0,0,1,.83-.26,2,2,0,0,0,1-.39,1.66,1.66,0,0,0,.37-.82c.13-.53.18-.53.25-.53a3.92,3.92,0,0,1,.7,1.18,5.6,5.6,0,0,0,1.54,2.24A2.27,2.27,0,0,1,8.77,22.71Zm6.37-3c-1.47,1.48-4.41,1.38-5.71,1.18a3.64,3.64,0,0,0-1.15-1.29,5,5,0,0,1-1.21-1.85,4,4,0,0,0-1-1.57,23.88,23.88,0,0,1,1.43-4.48c.21-.53.48-1,.74-1.55a15.43,15.43,0,0,0,.94-2.09A3.86,3.86,0,0,0,11,9a10.05,10.05,0,0,0,2.83-1.2A18.65,18.65,0,0,1,16,16.75,6.06,6.06,0,0,0,15.14,19.7Zm5.06,1.12a4.19,4.19,0,0,0-1.55.83l-.34.35a2.27,2.27,0,0,1-1.81,1,.55.55,0,0,1-.41-.12c-.15-.17-.11-.56-.1-.72S16,22,16,22c0-.3.28-3.13.37-3.58a1.43,1.43,0,0,0,.13.17,1.34,1.34,0,0,0,1,.42h.35a2,2,0,0,0,1.47-.45,1.24,1.24,0,0,0,.33.8,4.53,4.53,0,0,0,.73.56c.38.25.62.42.64.53A2.89,2.89,0,0,1,20.2,20.82Z" style="fill:#303c42"/></g></svg>