<svg height="20" viewBox="0 0 20 20" width="20" xmlns="http://www.w3.org/2000/svg"><path d="m15 3c1.1046 0 2 .89543 2 2v10c0 1.1046-.8954 2-2 2h-10c-1.10457 0-2-.8954-2-2v-10c0-1.10457.89543-2 2-2zm-9.5 8c-.27614 0-.5.2239-.5.5v2c0 .8284.67157 1.5 1.5 1.5h2c.27614 0 .5-.2239.5-.5s-.22386-.5-.5-.5h-2c-.27614 0-.5-.2239-.5-.5v-2c0-.2761-.22386-.5-.5-.5zm9 0c-.2761 0-.5.2239-.5.5v2c0 .2761-.2239.5-.5.5h-2c-.2761 0-.5.2239-.5.5s.2239.5.5.5h2c.8284 0 1.5-.6716 1.5-1.5v-2c0-.2761-.2239-.5-.5-.5zm-6-6h-2c-.82843 0-1.5.67157-1.5 1.5v2c0 .27614.22386.5.5.5s.5-.22386.5-.5v-2c0-.27614.22386-.5.5-.5h2c.27614 0 .5-.22386.5-.5s-.22386-.5-.5-.5zm5 0h-2c-.2761 0-.5.22386-.5.5s.2239.5.5.5h2c.2761 0 .5.22386.5.5v2c0 .27614.2239.5.5.5s.5-.22386.5-.5v-2c0-.82843-.6716-1.5-1.5-1.5z" fill="#212121"/></svg>