<svg height="20" viewBox="0 0 20 20" width="20" xmlns="http://www.w3.org/2000/svg"><path d="m15 3c1.1046 0 2 .89543 2 2v10c0 1.1046-.8954 2-2 2h-10c-1.10457 0-2-.8954-2-2v-10c0-1.10457.89543-2 2-2zm0 1h-10c-.51283143 0-.93550653.38604429-.9932722.88337975l-.0067278.11662025v10c0 .51285.38604429.9355092.88337975.9932725l.11662025.0067275h10c.51285 0 .9355092-.386027.9932725-.8833761l.0067275-.1166239v-10c0-.51283143-.386027-.93550653-.8833761-.9932722zm-9.5 7c.24545778 0 .4496079.1769086.49194425.4101355l.00805575.0898645v2c0 .2454222.17687704.4496.41012499.4919429l.08987501.0080571h2c.27614 0 .5.2239.5.5 0 .2454222-.17687704.4496-.41012499.4919429l-.08987501.0080571h-2c-.77969882 0-1.420449-.5949121-1.49313345-1.3555442l-.00686655-.1444558v-2c0-.2761.22386-.5.5-.5zm9 0c.2454222 0 .4496.1769086.4919429.4101355l.0080571.0898645v2c0 .7796706-.5949121 1.4204457-1.3555442 1.4931332l-.1444558.0068668h-2c-.2761 0-.5-.2239-.5-.5 0-.2454222.1769086-.4496.4101355-.4919429l.0898645-.0080571h2c.2454222 0 .4496-.1769086.4919429-.4101355l.0080571-.0898645v-2c0-.2761.2239-.5.5-.5zm-6-6c.27614 0 .5.22386.5.5 0 .24545778-.17687704.4496079-.41012499.49194425l-.08987501.00805575h-2c-.24545778 0-.4496079.17687704-.49194425.41012499l-.00805575.08987501v2c0 .27614-.22386.5-.5.5-.24545778 0-.4496079-.17687704-.49194425-.41012499l-.00805575-.08987501v-2c0-.77969882.59488554-1.420449 1.35553954-1.49313345l.14446046-.00686655zm5 0c.7796706 0 1.4204457.59488554 1.4931332 1.35553954l.0068668.14446046v2c0 .27614-.2239.5-.5.5-.2454222 0-.4496-.17687704-.4919429-.41012499l-.0080571-.08987501v-2c0-.24545778-.1769086-.4496079-.4101355-.49194425l-.0898645-.00805575h-2c-.2761 0-.5-.22386-.5-.5 0-.24545778.1769086-.4496079.4101355-.49194425l.0898645-.00805575z" fill="#212121"/></svg>