<?xml version="1.0" standalone="no"?>
<!DOCTYPE svg PUBLIC "-//W3C//DTD SVG 20010904//EN"
 "http://www.w3.org/TR/2001/REC-SVG-20010904/DTD/svg10.dtd">
<svg version="1.0" xmlns="http://www.w3.org/2000/svg"
 width="1280.000000pt" height="1124.000000pt" viewBox="0 0 1280.000000 1124.000000"
 preserveAspectRatio="xMidYMid meet">
<metadata>
Created by potrace 1.15, written by Peter Selinger 2001-2017
</metadata>
<g transform="translate(0.000000,1124.000000) scale(0.100000,-0.100000)"
fill="#000000" stroke="none">
<path d="M423 11216 c-53 -44 -203 -223 -203 -241 0 -9 -8 -29 -19 -43 -36
-52 -91 -172 -111 -244 -32 -115 -45 -281 -34 -443 7 -102 7 -158 -2 -205 -13
-72 -7 -437 8 -446 18 -12 6 -23 -29 -26 l-38 -3 33 -34 c33 -34 59 -37 29 -3
-26 29 -20 34 19 17 20 -8 40 -15 45 -15 17 0 9 29 -19 61 l-27 33 -3 184 c-2
112 1 189 7 195 6 6 18 -8 35 -41 31 -61 54 -80 31 -25 -39 91 -47 125 -56
253 -15 206 3 403 47 533 31 91 84 180 201 339 108 146 106 145 253 135 150
-11 278 -60 326 -125 52 -69 409 -500 412 -497 12 12 -132 210 -274 378 -46
54 -93 115 -104 135 -49 86 -177 136 -380 148 -114 7 -115 7 -147 -20z"/>
<path d="M3620 11201 c-106 -8 -132 -21 -310 -154 -170 -128 -370 -326 -523
-519 -64 -81 -117 -151 -117 -155 0 -4 -39 -47 -87 -95 -85 -85 -102 -120 -43
-84 33 19 34 18 20 -18 -21 -55 10 -20 102 117 187 275 386 496 638 708 175
147 211 167 340 183 65 9 72 0 55 -58 -16 -53 -10 -80 12 -51 12 18 13 17 13
-8 0 -36 16 -34 35 4 13 24 14 33 4 45 -7 8 -15 32 -18 52 -7 42 -5 41 -121
33z"/>
<path d="M3769 11048 c0 -18 -8 -63 -18 -101 -15 -59 -16 -69 -3 -80 28 -22
-2 -541 -48 -852 -18 -119 -22 -132 -48 -155 -16 -14 -38 -38 -48 -55 -18 -28
-18 -29 0 -22 15 6 17 4 13 -13 -7 -25 7 -34 23 -15 17 20 32 19 28 -2 -1 -10
2 -24 6 -32 5 -8 9 -60 9 -115 0 -98 -6 -127 -58 -271 -17 -49 45 38 66 92 27
69 37 223 20 302 -9 44 -7 75 19 224 41 245 61 480 58 687 -1 96 -1 235 0 308
2 84 -1 132 -8 132 -5 0 -10 -15 -11 -32z m-84 -1228 c3 -5 1 -10 -4 -10 -6 0
-11 5 -11 10 0 6 2 10 4 10 3 0 8 -4 11 -10z"/>
<path d="M3082 10462 c-39 -25 -42 -30 -42 -72 0 -68 30 -90 70 -50 28 28 26
42 -6 30 -38 -15 -44 -13 -44 19 0 22 10 37 38 59 48 39 38 48 -16 14z"/>
<path d="M950 10464 c0 -30 161 -177 176 -161 5 5 -27 37 -85 85 -14 12 -12
13 12 9 43 -7 28 11 -41 50 -53 30 -62 32 -62 17z"/>
<path d="M1445 10440 c5 -8 23 -36 42 -61 44 -62 63 -110 74 -189 5 -35 14
-69 20 -75 15 -15 29 15 22 45 l-6 25 23 -20 c17 -14 22 -16 18 -5 -13 37 -37
118 -42 143 -4 15 -11 27 -16 27 -5 0 -7 -7 -4 -15 13 -33 -14 -12 -44 33 -28
44 -105 125 -87 92z"/>
<path d="M1695 10348 c8 -27 35 -58 35 -41 0 7 -4 23 -10 37 -12 32 -34 35
-25 4z"/>
<path d="M1640 10306 c0 -43 3 -56 15 -56 11 0 15 12 15 44 0 26 -6 48 -15 56
-13 11 -15 5 -15 -44z"/>
<path d="M1771 10330 c9 -13 22 -26 30 -29 11 -3 10 1 -2 19 -9 13 -22 26 -30
29 -11 3 -10 -1 2 -19z"/>
<path d="M1820 10342 c0 -15 22 -31 35 -25 17 6 47 -10 111 -58 56 -43 66 -47
57 -22 -5 13 -2 15 18 9 97 -30 149 -38 271 -41 l136 -4 64 41 c76 50 61 63
-23 19 -72 -37 -90 -39 -59 -6 35 37 19 39 -29 4 -41 -31 -45 -31 -114 -25
-100 9 -220 39 -323 81 -83 33 -144 45 -144 27z"/>
<path d="M3130 10321 c-35 -11 -88 -39 -95 -51 -7 -11 134 38 150 52 11 10
-20 9 -55 -1z"/>
<path d="M1211 10270 c-1 -56 13 -100 23 -70 2 8 9 30 15 49 15 47 14 53 -8
46 -14 -4 -21 0 -24 12 -3 10 -5 -7 -6 -37z"/>
<path d="M1280 10245 c-13 -14 -19 -25 -13 -25 5 0 20 11 33 25 13 14 19 25
13 25 -5 0 -20 -11 -33 -25z"/>
<path d="M1140 10186 c0 -2 8 -10 18 -17 15 -13 16 -12 3 4 -13 16 -21 21 -21
13z"/>
<path d="M3141 10158 c-36 -5 -87 -21 -113 -35 -50 -27 -69 -54 -20 -29 68 35
154 48 289 44 73 -3 131 -2 128 0 -9 9 -140 31 -180 30 -22 0 -69 -5 -104 -10z"/>
<path d="M1150 10105 c13 -14 26 -23 28 -20 7 7 -29 45 -41 45 -6 0 0 -11 13
-25z"/>
<path d="M1030 10075 c0 -8 161 -125 172 -125 17 0 -10 27 -82 80 -60 45 -90
60 -90 45z"/>
<path d="M3055 10031 c-3 -6 10 -7 32 -4 50 8 55 13 10 13 -20 0 -38 -4 -42
-9z"/>
<path d="M3038 9963 c-10 -2 -18 -9 -18 -15 0 -7 20 -9 61 -4 34 3 70 6 80 6
11 0 19 5 19 10 0 10 -108 12 -142 3z"/>
<path d="M955 9933 c16 -9 63 -41 103 -71 40 -30 75 -52 78 -49 11 11 -160
137 -186 137 -25 -1 -25 -1 5 -17z"/>
<path d="M3524 9878 l-9 -53 -47 -3 c-60 -4 -126 22 -109 42 10 12 6 16 -21
24 -63 20 -105 22 -179 12 -116 -17 -104 -29 25 -27 108 2 118 0 128 -18 7
-11 25 -32 41 -47 25 -25 37 -28 93 -28 56 0 67 3 93 28 31 29 50 72 32 72 -6
0 -11 -7 -11 -15 0 -8 -5 -15 -10 -15 -6 0 -8 15 -4 40 4 23 3 40 -3 40 -5 0
-14 -24 -19 -52z"/>
<path d="M710 9830 c-55 -7 -55 -7 22 -8 45 -1 95 -9 118 -18 23 -9 44 -14 47
-10 8 8 -54 32 -97 38 -19 3 -60 2 -90 -2z"/>
<path d="M473 9753 c-12 -29 -14 -59 -10 -130 5 -90 18 -133 39 -133 7 0 7 4
0 13 -5 6 -15 46 -21 88 -12 78 -3 157 21 186 7 9 7 13 -1 13 -7 0 -19 -17
-28 -37z"/>
<path d="M1880 9726 c0 -60 9 -73 60 -78 35 -3 35 -3 38 41 4 56 -4 91 -23 91
-7 0 -17 -9 -20 -20 -3 -11 -11 -20 -17 -20 -5 0 -12 9 -15 20 -10 38 -23 20
-23 -34z"/>
<path d="M871 9732 c-15 -38 -37 -52 -80 -52 -24 0 -31 -4 -31 -19 0 -10 7
-21 15 -25 10 -4 15 1 15 14 0 24 8 25 31 4 10 -9 23 -13 28 -9 20 12 42 66
38 93 l-3 27 -13 -33z"/>
<path d="M2000 9656 c0 -41 5 -68 13 -75 20 -16 27 -3 27 48 0 60 -9 91 -26
91 -10 0 -14 -16 -14 -64z"/>
<path d="M690 9679 c0 -33 55 -99 82 -99 16 0 12 10 -24 55 -42 54 -58 66 -58
44z"/>
<path d="M1857 9673 c-4 -3 -7 -18 -6 -32 1 -26 1 -25 10 3 9 31 7 41 -4 29z"/>
<path d="M2598 9629 c-21 -10 -43 -29 -50 -42 -18 -33 -14 -212 5 -267 l16
-45 -6 67 c-4 53 -1 78 17 125 29 79 67 128 86 112 11 -9 14 -8 14 7 0 37 -13
64 -29 64 -9 -1 -33 -10 -53 -21z m-18 -59 c-6 -12 -14 -19 -17 -17 -2 3 1 15
7 27 6 12 14 19 17 17 2 -3 -1 -15 -7 -27z"/>
<path d="M649 9592 c11 -21 51 -58 51 -48 0 5 -9 21 -21 37 -22 32 -46 41 -30
11z"/>
<path d="M2066 9553 c-8 -59 5 -107 28 -111 17 -4 18 2 11 60 -3 34 -9 71 -11
81 -9 31 -22 18 -28 -30z"/>
<path d="M2727 9586 c-12 -30 -8 -66 8 -72 10 -4 15 -20 15 -44 0 -25 5 -40
15 -44 13 -5 14 -19 9 -86 -7 -81 1 -101 26 -62 21 32 3 -91 -20 -146 -21 -49
-22 -82 -1 -82 5 0 21 31 36 69 25 62 27 77 20 138 -4 37 -10 62 -12 56 -3 -7
-9 -13 -14 -13 -5 0 -6 26 -2 60 4 46 2 65 -11 84 -9 14 -16 39 -16 55 0 17
-7 34 -15 39 -9 4 -19 21 -23 37 -7 24 -9 26 -15 11z"/>
<path d="M14 9475 c5 -11 12 -38 16 -60 4 -22 14 -65 23 -95 8 -30 20 -130 26
-222 12 -183 38 -303 91 -432 18 -42 34 -76 36 -74 1 2 -10 41 -27 86 -47 135
-71 271 -75 427 -2 106 -8 156 -23 205 -27 84 -27 100 -1 93 33 -9 23 10 -27
52 -32 27 -44 33 -39 20z"/>
<path d="M1759 9437 c19 -21 20 -26 7 -37 -14 -11 -13 -17 10 -55 13 -24 36
-87 49 -140 13 -53 26 -99 29 -102 8 -9 38 6 32 16 -3 5 1 14 9 21 20 17 19
24 -16 110 -17 44 -26 76 -20 78 16 5 -24 76 -59 106 -41 34 -73 36 -41 3z"/>
<path d="M2137 9434 c-15 -15 -6 -73 15 -100 21 -25 22 -39 22 -156 0 -114 2
-128 17 -128 14 0 19 13 25 66 9 87 0 169 -29 251 -21 63 -35 82 -50 67z"/>
<path d="M1510 9335 c0 -12 -4 -14 -19 -5 -45 24 -52 8 -8 -20 51 -34 103 -90
129 -138 20 -37 33 -40 48 -11 17 31 5 58 -53 121 -55 59 -97 82 -97 53z"/>
<path d="M3000 9295 c-19 -14 -29 -25 -23 -25 6 0 19 -7 28 -16 14 -15 18 -15
41 1 17 11 24 24 22 38 -4 30 -27 31 -68 2z"/>
<path d="M3614 9255 c-10 -8 -15 -15 -10 -15 4 0 -3 -15 -18 -34 -14 -19 -26
-37 -26 -41 0 -3 17 -5 37 -3 40 3 60 28 22 28 -22 0 -22 1 9 33 18 18 32 36
32 40 0 12 -25 8 -46 -8z"/>
<path d="M2576 9228 c-11 -42 -7 -55 9 -34 16 22 20 56 6 56 -5 0 -11 -10 -15
-22z"/>
<path d="M2980 9218 c-15 -6 -20 -12 -12 -15 19 -7 14 -27 -13 -53 -18 -17
-22 -27 -15 -36 27 -31 90 31 90 89 0 29 -10 32 -50 15z"/>
<path d="M2555 9080 c3 -5 10 -10 16 -10 5 0 9 5 9 10 0 6 -7 10 -16 10 -8 0
-12 -4 -9 -10z"/>
<path d="M3562 9061 c-7 -19 -12 -50 -11 -70 1 -33 2 -32 15 19 16 65 14 100
-4 51z"/>
<path d="M1590 9034 c-103 -18 -261 -89 -282 -128 -7 -11 -12 -55 -12 -96 2
-131 64 -255 154 -308 40 -24 55 -27 140 -27 81 0 103 4 145 25 28 13 63 23
78 21 17 -1 37 5 48 15 19 17 23 17 47 3 16 -9 33 -31 41 -56 14 -38 13 -44
-8 -93 l-23 -53 22 -17 c22 -16 22 -20 10 -70 -10 -44 -10 -54 1 -61 38 -24
59 3 95 120 19 64 23 89 15 105 -9 20 -10 19 -10 -6 -1 -16 -10 -33 -23 -42
-34 -24 -37 -20 -23 27 18 61 11 181 -14 223 -12 19 -32 69 -47 112 -47 141
-117 237 -203 281 -39 20 -110 32 -151 25z m137 -70 c69 -33 108 -80 133 -160
26 -85 25 -117 -4 -181 -28 -60 -50 -73 -155 -97 -91 -20 -124 -20 -188 -1
-61 18 -113 71 -150 152 -29 62 -42 168 -25 200 6 11 42 36 79 55 59 31 92 41
198 62 27 5 51 -1 112 -30z"/>
<path d="M1582 8836 c-40 -46 -46 -68 -32 -126 14 -60 30 -76 59 -60 50 26 72
141 38 194 -23 34 -29 33 -65 -8z"/>
<path d="M2885 8966 c-77 -25 -155 -68 -180 -100 -49 -64 -58 -101 -50 -207 7
-90 5 -100 -14 -128 -28 -39 -27 -96 4 -146 14 -22 25 -52 25 -67 0 -17 12
-40 31 -60 l31 -33 -6 45 c-3 25 -17 71 -32 103 -17 38 -24 68 -21 85 3 15 11
50 17 77 6 29 8 80 5 121 -9 98 5 142 60 193 78 71 186 106 242 78 42 -22 100
-85 124 -135 27 -55 24 -158 -7 -217 -57 -109 -242 -140 -352 -58 -37 27 -49
25 -33 -5 17 -31 108 -84 154 -89 89 -10 226 62 274 145 37 63 39 161 4 240
-39 88 -151 174 -221 171 -8 0 -33 -6 -55 -13z"/>
<path d="M2546 8921 c-9 -28 -16 -69 -15 -93 l1 -43 8 41 c5 23 15 65 24 93
19 65 4 67 -18 2z"/>
<path d="M2123 8904 c-3 -8 -1 -20 6 -27 8 -8 11 -4 11 16 0 30 -7 35 -17 11z"/>
<path d="M1020 8876 c-20 -8 -58 -25 -85 -38 -28 -14 -71 -31 -97 -39 -39 -11
-48 -18 -50 -39 -3 -21 -9 -25 -41 -28 -37 -3 -38 -5 -32 -33 5 -21 3 -29 -7
-30 -7 0 -24 -23 -38 -52 -16 -33 -42 -64 -70 -84 -25 -19 -61 -47 -80 -63
-34 -28 -34 -29 -10 -29 14 -1 39 8 55 19 17 11 39 20 51 20 24 0 54 30 78 77
17 35 85 72 161 89 26 6 43 17 51 33 13 26 98 81 127 81 10 0 17 8 17 19 0 15
-6 19 -26 18 -15 -1 -29 4 -31 11 -3 8 9 12 41 12 47 0 55 7 34 28 -7 7 -8 12
-2 12 6 0 19 7 30 15 18 14 18 14 -11 14 -16 0 -46 -6 -65 -13z m-76 -125 c3
-5 -4 -11 -16 -14 -25 -7 -33 -3 -23 12 8 13 32 14 39 2z"/>
<path d="M3546 8838 c-3 -13 -18 -109 -35 -213 -30 -191 -65 -313 -118 -418
-24 -47 -39 -157 -22 -157 12 0 39 42 39 62 0 10 -7 18 -15 18 -19 0 -19 14 1
31 42 34 103 198 134 354 19 103 38 345 27 345 -4 0 -9 -10 -11 -22z"/>
<path d="M2150 8813 c0 -10 5 -25 10 -33 8 -12 10 -9 10 12 0 15 -4 30 -10 33
-5 3 -10 -2 -10 -12z"/>
<path d="M2905 8786 c-26 -61 -13 -141 28 -174 13 -11 18 -10 32 12 28 43 29
95 3 146 -29 57 -45 60 -63 16z"/>
<path d="M3330 8793 c0 -5 20 -21 45 -36 45 -29 63 -62 51 -93 -3 -8 0 -25 8
-37 8 -12 17 -39 20 -59 7 -40 21 -50 30 -20 10 31 -20 181 -40 204 -29 33
-114 63 -114 41z"/>
<path d="M3055 8760 c-3 -5 -2 -10 4 -10 5 0 13 5 16 10 3 6 2 10 -4 10 -5 0
-13 -4 -16 -10z"/>
<path d="M218 8437 c12 -13 19 -26 16 -30 -9 -9 14 -35 60 -69 50 -36 83 -38
43 -3 -19 17 -23 25 -13 25 29 0 16 19 -41 59 -64 46 -101 56 -65 18z"/>
<path d="M3110 8366 c0 -21 21 -31 30 -15 5 7 6 17 4 21 -9 14 -34 9 -34 -6z"/>
<path d="M3049 8340 c-11 -7 -10 -10 4 -16 10 -4 23 -2 28 3 14 14 -13 24 -32
13z"/>
<path d="M2955 8319 c-4 -6 -19 -7 -37 -4 l-30 7 16 -31 c14 -26 43 -51 60
-51 3 0 6 12 6 26 0 17 6 28 20 31 24 6 26 19 4 27 -22 9 -32 7 -39 -5z"/>
<path d="M270 8276 c27 -25 70 -43 70 -29 0 10 -71 53 -86 53 -5 0 3 -11 16
-24z"/>
<path d="M300 8223 c0 -5 11 -20 25 -33 23 -22 34 -18 17 5 -13 19 -42 38 -42
28z"/>
<path d="M347 8129 c-15 -9 -47 -58 -47 -74 0 -16 21 0 44 36 30 44 30 53 3
38z"/>
<path d="M2248 8084 c-60 -32 -53 -69 14 -83 41 -9 70 -50 87 -125 9 -40 20
-61 37 -72 18 -12 24 -26 25 -53 1 -36 1 -36 12 -10 7 15 31 45 54 67 27 27
49 61 64 102 18 49 30 67 61 86 39 25 49 53 25 73 -8 6 -85 15 -173 21 -191
12 -173 12 -206 -6z m240 -31 c56 -3 105 -10 108 -15 3 -5 -6 -18 -19 -29 -14
-10 -33 -41 -41 -67 -15 -43 -45 -81 -98 -121 -30 -23 -48 3 -48 69 0 85 -14
118 -58 130 -21 5 -45 10 -54 10 -25 0 -31 17 -11 30 10 6 39 8 68 5 28 -3 96
-8 153 -12z"/>
<path d="M371 8064 c-22 -27 -29 -60 -11 -49 13 8 43 66 37 71 -3 3 -14 -7
-26 -22z"/>
<path d="M1623 8018 c-13 -6 -23 -15 -23 -19 0 -10 58 10 66 22 7 12 -16 10
-43 -3z"/>
<path d="M3370 8010 c-8 -5 -11 -12 -7 -16 4 -4 15 0 24 9 18 18 8 23 -17 7z"/>
<path d="M386 7968 c-3 -13 -5 -43 -5 -68 1 -41 1 -43 9 -15 14 51 19 105 11
105 -5 0 -11 -10 -15 -22z"/>
<path d="M2790 7965 c0 -9 5 -15 11 -13 6 2 11 8 11 13 0 5 -5 11 -11 13 -6 2
-11 -4 -11 -13z"/>
<path d="M1746 7961 c-4 -5 -2 -12 3 -15 5 -4 12 -2 15 3 4 5 2 12 -3 15 -5 4
-12 2 -15 -3z"/>
<path d="M2885 7960 c3 -5 8 -10 11 -10 2 0 4 5 4 10 0 6 -5 10 -11 10 -5 0
-7 -4 -4 -10z"/>
<path d="M2937 7964 c-4 -4 -4 -10 -1 -15 6 -10 34 0 34 12 0 10 -24 12 -33 3z"/>
<path d="M1935 7950 c-11 -17 5 -32 21 -19 7 6 11 15 8 20 -7 12 -21 11 -29
-1z"/>
<path d="M3014 7928 c9 -12 16 -30 16 -39 0 -15 29 -49 43 -49 7 0 -9 57 -25
88 -6 12 -20 22 -30 22 -18 0 -18 -2 -4 -22z"/>
<path d="M3340 7906 c0 -18 17 -29 30 -21 8 5 7 11 -1 21 -15 18 -29 18 -29 0z"/>
<path d="M439 7841 c-42 -42 -47 -61 -11 -42 25 13 67 70 58 78 -3 3 -24 -13
-47 -36z"/>
<path d="M1854 7845 c-19 -14 -18 -14 4 -15 13 0 22 6 22 15 0 19 -1 19 -26 0z"/>
<path d="M1945 7850 c-3 -5 -1 -10 4 -10 6 0 11 5 11 10 0 6 -2 10 -4 10 -3 0
-8 -4 -11 -10z"/>
<path d="M2880 7816 c0 -9 30 -14 35 -6 4 6 -3 10 -14 10 -12 0 -21 -2 -21 -4z"/>
<path d="M3045 7810 c3 -5 8 -10 11 -10 2 0 4 5 4 10 0 6 -5 10 -11 10 -5 0
-7 -4 -4 -10z"/>
<path d="M460 7785 c-7 -8 -8 -15 -2 -15 5 0 15 7 22 15 7 8 8 15 2 15 -5 0
-15 -7 -22 -15z"/>
<path d="M478 7732 c-43 -46 -66 -101 -28 -67 24 22 64 84 58 90 -2 3 -16 -8
-30 -23z"/>
<path d="M2755 7740 c-3 -5 1 -10 10 -10 9 0 13 5 10 10 -3 6 -8 10 -10 10 -2
0 -7 -4 -10 -10z"/>
<path d="M1700 7730 c0 -5 7 -10 15 -10 8 0 15 5 15 10 0 6 -7 10 -15 10 -8 0
-15 -4 -15 -10z"/>
<path d="M3257 7693 c-20 -27 -34 -50 -32 -51 8 -9 65 34 61 45 -3 6 2 17 10
23 8 7 14 16 14 21 0 21 -20 6 -53 -38z"/>
<path d="M2830 7720 c0 -5 5 -10 11 -10 5 0 7 5 4 10 -3 6 -8 10 -11 10 -2 0
-4 -4 -4 -10z"/>
<path d="M1570 7690 c0 -5 5 -10 11 -10 5 0 7 5 4 10 -3 6 -8 10 -11 10 -2 0
-4 -4 -4 -10z"/>
<path d="M2900 7690 c0 -5 7 -10 16 -10 8 0 12 5 9 10 -3 6 -10 10 -16 10 -5
0 -9 -4 -9 -10z"/>
<path d="M2334 7666 c-16 -7 -75 -28 -130 -46 -54 -18 -103 -37 -109 -41 -21
-19 53 -7 100 16 28 13 64 25 80 25 17 0 45 4 63 9 27 8 34 7 39 -6 4 -9 1
-19 -5 -21 -15 -5 -16 -32 -2 -32 6 0 10 4 10 10 0 5 6 7 14 4 8 -3 16 3 19
16 4 17 10 20 28 15 24 -8 21 4 -14 43 -23 25 -48 27 -93 8z"/>
<path d="M470 7654 c-1 -5 -5 -28 -9 -51 -5 -24 -5 -43 -1 -43 9 0 24 90 16
98 -3 3 -6 1 -6 -4z"/>
<path d="M1760 7630 c-13 -8 -12 -10 3 -10 9 0 17 5 17 10 0 12 -1 12 -20 0z"/>
<path d="M1880 7610 c0 -5 6 -10 14 -10 8 0 18 5 21 10 3 6 -3 10 -14 10 -12
0 -21 -4 -21 -10z"/>
<path d="M3175 7565 c-69 -44 -75 -58 -12 -31 26 11 101 77 86 76 -2 0 -35
-21 -74 -45z"/>
<path d="M2500 7591 c0 -6 18 -29 39 -50 29 -29 53 -42 94 -51 32 -8 63 -9 74
-4 15 6 13 8 -12 11 -78 8 -96 16 -144 59 -28 25 -51 41 -51 35z"/>
<path d="M2330 7559 c0 -5 5 -7 10 -4 6 3 10 8 10 11 0 2 -4 4 -10 4 -5 0 -10
-5 -10 -11z"/>
<path d="M1890 7550 c-12 -8 -9 -10 12 -10 15 0 30 5 33 10 8 13 -25 13 -45 0z"/>
<path d="M1975 7550 c-3 -5 -2 -10 4 -10 5 0 13 5 16 10 3 6 2 10 -4 10 -5 0
-13 -4 -16 -10z"/>
<path d="M484 7422 c14 -247 -1 -592 -28 -657 -7 -16 -43 -70 -80 -118 -61
-81 -76 -107 -60 -107 13 0 114 85 104 88 -5 2 12 36 39 75 27 40 52 83 56 95
6 21 4 23 -15 17 -20 -6 -21 -4 -16 22 46 223 58 443 31 599 -25 138 -39 131
-31 -14z"/>
<path d="M3100 7481 c0 -13 111 -47 183 -56 31 -4 57 -10 57 -14 0 -9 -47 -52
-87 -80 -18 -12 -33 -29 -33 -37 0 -18 31 -18 56 1 18 13 18 14 -6 8 -20 -5
-17 0 16 25 22 16 51 42 63 58 31 39 16 49 -104 74 -55 11 -110 22 -122 25
-13 3 -23 1 -23 -4z"/>
<path d="M2618 7347 c-25 -34 -55 -71 -67 -81 -19 -17 -29 -46 -16 -46 18 0
145 159 145 183 0 19 -20 1 -62 -56z"/>
<path d="M3347 7323 c-7 -11 -47 -143 -47 -155 0 -5 4 -7 8 -4 11 7 56 156 49
162 -3 3 -7 2 -10 -3z"/>
<path d="M2500 7225 c0 -8 2 -15 4 -15 2 0 6 7 10 15 3 8 1 15 -4 15 -6 0 -10
-7 -10 -15z"/>
<path d="M1915 7210 c-10 -11 -14 -20 -8 -20 5 0 18 9 28 20 10 11 14 20 8 20
-5 0 -18 -9 -28 -20z"/>
<path d="M2406 7203 c-9 -18 -12 -33 -7 -33 13 0 33 38 28 53 -2 7 -11 -3 -21
-20z"/>
<path d="M2456 7205 c-3 -8 -1 -15 4 -15 6 0 10 7 10 15 0 8 -2 15 -4 15 -2 0
-6 -7 -10 -15z"/>
<path d="M3358 7173 c-23 -28 -30 -43 -19 -43 12 0 46 48 39 55 -3 3 -12 -3
-20 -12z"/>
<path d="M2175 7160 c-16 -18 -16 -20 -2 -20 9 0 21 9 27 20 6 11 7 20 2 20
-5 0 -17 -9 -27 -20z"/>
<path d="M2085 7160 c-3 -5 -1 -10 4 -10 6 0 11 5 11 10 0 6 -2 10 -4 10 -3 0
-8 -4 -11 -10z"/>
<path d="M2115 7150 c-3 -5 -2 -10 4 -10 5 0 13 5 16 10 3 6 2 10 -4 10 -5 0
-13 -4 -16 -10z"/>
<path d="M4053 7079 c-245 -106 -274 -113 -421 -100 -115 10 -140 8 -112 -9
51 -32 243 -40 331 -14 82 24 438 207 394 203 -5 -1 -92 -37 -192 -80z"/>
<path d="M3407 7101 c-22 -38 -22 -48 2 -27 19 18 35 56 22 56 -4 0 -14 -13
-24 -29z"/>
<path d="M3455 7060 c-3 -5 -2 -10 4 -10 5 0 13 5 16 10 3 6 2 10 -4 10 -5 0
-13 -4 -16 -10z"/>
<path d="M4200 7047 c-94 -56 -142 -89 -137 -93 5 -5 124 63 167 96 33 26 14
24 -30 -3z"/>
<path d="M4313 6995 c-45 -19 -111 -65 -93 -65 8 1 47 19 85 40 68 39 73 53 8
25z"/>
<path d="M4487 6954 c-98 -16 -114 -22 -59 -23 47 -1 131 17 147 30 11 10 15
11 -88 -7z"/>
<path d="M4715 6830 c-3 -5 13 -14 35 -20 44 -12 523 -231 740 -339 344 -171
760 -471 1041 -751 205 -204 497 -563 628 -771 86 -138 179 -309 217 -402 18
-45 38 -83 45 -86 47 -15 -184 466 -308 641 -342 486 -737 879 -1150 1144 -48
31 -137 88 -196 126 -166 107 -645 334 -889 422 -108 39 -155 49 -163 36z"/>
<path d="M457 6593 c-42 -58 -77 -116 -77 -127 1 -18 5 -16 31 14 44 51 139
193 139 208 0 27 -20 7 -93 -95z"/>
<path d="M477 6523 c-37 -54 -67 -129 -73 -182 -4 -41 -1 -36 29 44 19 50 44
109 56 133 27 52 22 54 -12 5z"/>
<path d="M436 6323 c-38 -79 -203 -362 -285 -493 -11 -16 7 -6 50 30 37 30 92
74 124 98 31 24 54 46 51 49 -3 3 -28 -11 -56 -32 -27 -20 -50 -33 -50 -29 0
4 27 50 59 103 112 182 195 371 163 371 -4 0 -29 -44 -56 -97z"/>
<path d="M306 5894 c-20 -26 -36 -51 -36 -56 0 -6 18 13 41 42 22 28 39 54 36
56 -3 3 -21 -16 -41 -42z"/>
<path d="M312 5830 c-55 -62 -60 -80 -9 -32 l30 27 -7 -25 c-18 -69 -25 -123
-28 -207 l-3 -92 34 32 c26 24 32 27 27 12 -14 -38 -20 -175 -7 -175 7 0 11
19 11 51 0 28 8 79 17 115 9 35 14 67 10 70 -4 4 -21 -6 -38 -22 l-31 -29 4
90 c4 65 13 108 32 156 44 109 34 116 -42 29z"/>
<path d="M3307 5760 c-72 -77 -88 -100 -69 -100 14 0 154 160 150 171 -2 6
-38 -26 -81 -71z"/>
<path d="M3342 5725 c-56 -61 -82 -105 -62 -105 5 0 17 12 27 26 10 14 40 52
66 85 65 79 44 75 -31 -6z"/>
<path d="M3371 5646 c-52 -77 -71 -113 -67 -128 3 -13 -5 -38 -21 -65 -25 -43
-25 -73 -1 -73 7 0 31 25 52 55 22 30 49 63 60 73 24 20 26 23 -76 -113 -100
-133 -142 -208 -135 -242 3 -19 -7 -51 -34 -105 -43 -86 -48 -108 -21 -108 11
0 37 37 81 115 35 63 117 185 182 270 125 166 134 181 117 191 -5 4 -34 -20
-64 -52 -29 -33 -53 -55 -54 -51 0 5 21 40 46 79 25 39 50 82 55 94 11 32 -7
41 -34 17 -12 -10 -31 -25 -42 -33 -17 -13 -17 -11 3 20 52 80 55 114 5 69
-27 -25 -24 -15 9 34 11 15 18 35 16 44 -2 11 -30 -22 -77 -91z"/>
<path d="M413 5329 c4 -79 14 -171 22 -203 27 -103 149 -302 340 -556 56 -74
120 -162 142 -195 49 -74 199 -335 223 -388 l18 -39 51 68 c27 38 50 73 51 77
1 21 -28 -4 -60 -51 -19 -28 -37 -51 -40 -52 -7 0 -99 199 -120 260 -8 25 -69
122 -135 215 -65 94 -172 251 -236 350 -64 99 -131 196 -148 217 -46 53 -61
110 -74 279 -9 115 -16 154 -26 157 -12 4 -13 -18 -8 -139z"/>
<path d="M3437 5309 c-126 -146 -305 -467 -294 -525 3 -15 -9 -55 -28 -101
-33 -74 -35 -103 -10 -103 7 0 41 45 75 100 34 55 63 100 65 100 2 0 -22 -53
-54 -117 -67 -135 -95 -212 -93 -262 1 -19 -8 -71 -19 -115 -26 -100 -38 -176
-32 -193 3 -7 16 -13 30 -13 21 0 24 -4 20 -22 -3 -13 -13 -69 -22 -126 l-17
-103 23 -22 c13 -13 29 -32 35 -43 10 -16 13 -17 28 -5 11 10 16 30 16 72 0
32 7 92 17 134 13 62 14 79 3 99 -11 21 -8 39 24 139 41 132 43 147 17 154
-18 4 -18 7 -3 54 15 46 15 50 -2 62 -16 12 -15 19 24 102 31 67 39 94 32 109
-7 16 9 51 79 173 49 85 90 161 91 170 7 37 -23 19 -77 -47 -31 -39 -59 -70
-61 -67 -2 2 26 57 62 121 50 87 64 120 56 128 -9 9 -17 7 -32 -7 -33 -29 -23
-8 36 82 64 99 70 142 11 72z"/>
<path d="M5682 4329 c-191 -32 -451 -171 -653 -351 -76 -67 -174 -176 -166
-185 3 -3 46 33 95 79 189 179 338 284 511 359 113 48 215 77 303 86 37 3 65
10 62 14 -6 11 -81 10 -152 -2z"/>
<path d="M7456 4251 c-5 -7 243 -284 336 -376 63 -62 10 4 -101 128 -112 124
-156 183 -92 123 17 -17 31 -26 31 -22 0 20 -140 156 -160 156 -5 0 -11 -4
-14 -9z"/>
<path d="M1236 3981 c-32 -51 -60 -125 -53 -143 2 -8 14 -1 33 20 16 17 32 32
36 32 5 0 8 -24 8 -54 0 -37 6 -61 19 -78 11 -13 40 -72 65 -132 53 -123 66
-190 96 -481 11 -110 25 -235 30 -278 6 -47 6 -96 0 -125 -20 -105 -135 -356
-265 -577 -99 -167 -166 -297 -159 -304 9 -9 37 34 168 259 137 237 168 297
221 423 66 160 68 175 50 407 -35 445 -76 649 -158 787 -28 49 -41 83 -45 121
-5 55 -16 72 -35 53 -25 -25 -26 -8 -2 40 34 66 27 87 -9 30z"/>
<path d="M7570 3992 c0 -14 157 -162 172 -162 14 0 -77 95 -134 142 -21 16
-38 25 -38 20z"/>
<path d="M3186 3908 c-14 -67 -14 -110 0 -215 7 -64 15 -201 16 -305 1 -103 5
-188 8 -188 31 1 32 16 19 291 -8 191 -16 279 -25 289 -9 11 -10 34 -5 83 4
37 4 67 -1 67 -4 0 -10 -10 -12 -22z"/>
<path d="M7740 3698 c0 -3 19 -45 41 -94 63 -136 121 -324 184 -594 78 -339
121 -561 140 -725 27 -242 32 -264 73 -349 48 -100 171 -266 255 -341 72 -66
122 -97 215 -135 37 -15 109 -51 159 -80 155 -88 305 -141 513 -182 150 -29
443 -35 775 -13 391 24 675 31 675 15 0 -9 28 -11 120 -9 90 3 117 1 105 -7
-8 -6 -15 -14 -15 -16 0 -7 259 1 320 9 41 5 42 6 18 13 -14 4 -58 11 -97 15
-39 4 -69 11 -66 15 3 4 -86 11 -198 14 -111 3 -265 8 -342 11 -78 3 -316 -2
-535 -13 -242 -11 -438 -15 -505 -11 -134 9 -340 43 -455 75 -122 35 -405 178
-565 285 -146 99 -191 145 -293 302 -73 112 -87 157 -112 372 -28 242 -55 388
-129 705 -85 364 -142 539 -216 661 -31 50 -65 90 -65 77z"/>
<path d="M3128 3154 c13 -9 26 -13 30 -9 8 8 -17 25 -38 25 -9 0 -6 -6 8 -16z"/>
<path d="M4379 3091 c-35 -32 -62 -61 -59 -64 3 -3 37 24 75 59 39 35 65 64
59 64 -6 0 -40 -27 -75 -59z"/>
<path d="M4490 3135 c-7 -9 -10 -18 -7 -21 3 -3 10 4 17 15 13 25 8 27 -10 6z"/>
<path d="M3067 3123 c-13 -12 -7 -21 12 -16 10 2 35 0 55 -5 41 -12 48 -1 11
16 -29 13 -68 16 -78 5z"/>
<path d="M3055 3021 c-38 -27 -81 -61 -95 -76 l-25 -28 25 13 c38 19 170 121
170 131 0 12 4 14 -75 -40z"/>
<path d="M4477 3002 c-25 -28 -57 -104 -56 -137 0 -24 4 -19 18 27 10 31 28
70 41 88 24 34 23 51 -3 22z"/>
<path d="M2974 2882 c-36 -23 -134 -270 -134 -336 0 -24 6 -16 24 39 28 80
100 249 122 283 14 22 9 28 -12 14z"/>
<path d="M4463 2838 c-4 -7 -9 -66 -11 -131 -3 -94 -1 -128 13 -163 19 -51 38
-59 27 -11 -4 17 -7 96 -6 175 1 134 -4 159 -23 130z"/>
<path d="M2922 2628 c-11 -14 -40 -119 -42 -158 -7 -96 9 -70 39 63 23 98 23
119 3 95z"/>
<path d="M2980 2458 c0 -110 5 -138 23 -138 7 0 8 35 3 107 -10 148 -25 167
-26 31z"/>
<path d="M2724 2534 c-17 -14 -17 -15 -1 -10 10 3 23 6 28 6 5 0 9 5 9 10 0
14 -13 12 -36 -6z"/>
<path d="M2720 2495 c-16 -9 -19 -14 -9 -15 8 0 24 7 35 15 24 18 7 19 -26 0z"/>
<path d="M2664 2397 c-130 -133 -268 -327 -235 -327 5 0 27 24 48 52 l38 53
11 -310 c6 -171 9 -332 6 -360 -6 -68 12 -48 27 29 14 74 14 99 1 91 -8 -5
-10 58 -8 202 2 114 -1 249 -5 298 l-9 90 97 118 c53 65 95 120 93 122 -2 3
-31 -24 -64 -58z"/>
<path d="M3084 2385 c4 -16 14 -37 22 -45 13 -13 13 -11 3 20 -16 47 -34 65
-25 25z"/>
<path d="M3170 2343 c1 -35 24 -83 34 -72 6 5 -23 109 -30 109 -2 0 -4 -17 -4
-37z"/>
<path d="M3230 2289 c0 -6 16 -27 35 -46 33 -33 37 -35 54 -19 26 23 31 20 31
-19 0 -38 10 -44 30 -19 12 13 17 10 40 -28 24 -38 26 -51 22 -108 -2 -36 -8
-70 -13 -76 -5 -7 1 -20 16 -34 l25 -23 1 79 c0 43 4 88 8 98 9 23 -61 136
-84 136 -7 0 -16 14 -20 30 -8 37 -12 37 -48 3 l-28 -28 -27 33 c-28 33 -42
40 -42 21z"/>
<path d="M3490 2104 c0 -3 17 -26 39 -52 56 -67 64 -88 56 -137 -7 -53 5 -64
29 -24 10 17 20 28 22 26 2 -2 -3 -35 -12 -73 -9 -39 -14 -89 -11 -114 3 -25
-1 -72 -9 -105 -16 -70 -19 -225 -4 -225 6 0 10 9 10 20 0 30 27 78 50 90 23
13 25 5 5 -30 -26 -46 -16 -55 21 -19 34 32 36 32 29 9 -4 -14 -10 -31 -12
-37 -11 -30 8 -10 28 28 13 26 18 50 15 65 -4 14 -2 34 4 45 24 43 1 39 -59
-11 -34 -28 -64 -50 -67 -48 -6 7 32 149 68 255 19 58 28 98 23 110 -6 14 -13
6 -36 -42 -31 -66 -36 -52 -14 40 17 68 19 125 6 125 -5 0 -16 -11 -25 -25
-23 -35 -39 -32 -31 5 4 16 3 39 -1 52 -6 21 -7 21 -19 -8 -9 -19 -14 -23 -14
-12 -2 30 -91 120 -91 92z"/>
<path d="M2342 1994 c-7 -17 -12 -49 -10 -70 l3 -39 13 43 c7 24 12 56 10 70
l-3 27 -13 -31z"/>
<path d="M3388 1909 c19 -17 37 -27 40 -24 8 8 -44 55 -61 55 -7 0 3 -14 21
-31z"/>
<path d="M2255 1835 c14 -130 29 -215 36 -203 10 17 -7 141 -26 200 l-15 43 5
-40z"/>
<path d="M3370 1860 c0 -14 68 -45 77 -36 5 4 -3 16 -16 27 -25 20 -61 26 -61
9z"/>
<path d="M2297 1835 c3 -14 10 -25 15 -25 13 0 6 43 -8 47 -7 2 -10 -6 -7 -22z"/>
<path d="M1027 1758 c-61 -78 -77 -101 -77 -112 0 -12 7 -5 83 93 27 33 44 61
38 61 -5 0 -25 -19 -44 -42z"/>
<path d="M3395 1710 c-3 -5 3 -10 14 -10 12 0 21 5 21 10 0 6 -6 10 -14 10 -8
0 -18 -4 -21 -10z"/>
<path d="M994 1652 c-36 -31 -71 -82 -57 -82 10 0 103 95 103 105 0 11 -16 3
-46 -23z"/>
<path d="M3410 1610 c-8 -5 -12 -12 -9 -15 4 -3 12 1 19 10 14 17 11 19 -10 5z"/>
<path d="M3450 1592 c0 -5 -13 -29 -30 -53 -34 -51 -36 -69 -14 -210 30 -194
8 -311 -99 -529 l-52 -105 -60 -13 c-34 -7 -113 -11 -180 -10 -115 2 -124 1
-204 -31 -99 -38 -128 -41 -171 -15 -51 30 -57 45 -37 106 11 36 13 54 6 59
-8 5 -8 13 0 28 16 30 -3 26 -28 -5 -16 -21 -21 -41 -21 -91 0 -35 5 -73 11
-85 6 -11 8 -22 6 -24 -3 -3 -67 5 -143 18 l-139 23 -3 55 c-5 75 14 152 42
179 13 12 47 28 76 36 58 15 111 54 57 41 -15 -3 -48 -9 -75 -13 -26 -3 -56
-13 -66 -22 -30 -25 -54 -91 -62 -164 -4 -37 -10 -67 -14 -67 -4 0 -10 32 -13
71 -7 84 -1 99 73 182 60 66 101 91 136 83 56 -14 106 43 139 158 14 47 16 78
10 154 -6 86 -20 154 -26 127 -1 -5 -2 -66 -3 -135 -1 -122 -2 -127 -36 -195
l-35 -70 -60 -5 c-76 -7 -89 -14 -161 -96 l-59 -68 0 -110 c0 -103 1 -112 21
-120 12 -5 30 -25 40 -43 14 -27 23 -33 39 -29 11 3 43 -2 70 -10 64 -20 298
-29 392 -16 44 6 84 19 102 31 25 18 44 21 145 21 92 0 130 4 178 21 78 26
127 51 111 56 -8 3 2 33 32 93 72 144 89 218 90 400 0 85 -4 190 -9 232 -8 75
-8 80 18 118 29 44 31 50 16 50 -5 0 -10 -4 -10 -8z"/>
<path d="M937 1527 c-31 -47 -140 -273 -147 -304 -17 -71 14 -26 95 141 47 96
85 177 85 180 0 14 -19 4 -33 -17z"/>
<path d="M3945 1466 c-110 -36 -241 -93 -233 -101 10 -10 358 116 358 130 0
10 -26 4 -125 -29z"/>
<path d="M4338 1444 c-36 -26 -36 -26 -91 -10 -75 22 -117 20 -230 -8 -146
-36 -269 -107 -381 -221 -101 -102 -144 -179 -172 -303 -17 -78 -15 -171 6
-245 14 -49 58 -98 114 -128 43 -22 48 -23 125 -12 66 10 93 9 148 -2 100 -21
303 -18 303 4 0 4 -66 12 -148 19 -81 7 -165 17 -187 23 -45 12 -107 67 -130
115 -24 52 -20 146 11 206 30 59 48 76 121 115 59 31 66 43 26 43 -41 0 -108
-37 -157 -86 -48 -47 -47 -45 -49 -200 -1 -63 26 -126 72 -168 29 -26 18 -36
-43 -36 -40 0 -62 6 -98 29 -86 55 -88 59 -88 169 0 189 47 311 161 416 41 38
93 81 116 97 69 48 237 127 312 148 80 22 61 25 296 -46 131 -39 158 -44 209
-39 54 5 58 4 53 -13 -2 -10 -1 -24 3 -31 12 -20 18 11 9 46 l-9 31 -82 -5
-83 -4 24 26 c14 14 20 26 14 26 -6 0 -16 -7 -23 -15 -14 -17 -48 -19 -70 -5
-12 8 -9 15 20 45 36 37 35 45 -5 19 -13 -9 -29 -13 -35 -9 -5 3 -10 3 -10 -2
-1 -19 -18 -33 -34 -27 -16 6 -15 9 5 30 32 34 19 38 -23 8z"/>
<path d="M2186 1385 c-4 -22 -10 -53 -13 -69 -3 -19 -2 -26 6 -22 13 9 24 64
19 102 -4 27 -5 26 -12 -11z"/>
<path d="M2121 1330 c-15 -44 -15 -168 0 -153 6 6 15 44 19 85 9 83 -1 120
-19 68z"/>
<path d="M2070 1308 c0 -24 -3 -74 -6 -113 -5 -56 -4 -68 6 -58 14 12 33 167
24 196 -10 32 -24 17 -24 -25z"/>
<path d="M4780 1313 c0 -10 11 -31 25 -48 18 -23 27 -27 33 -17 7 10 11 10 22
-3 26 -31 30 -14 4 20 -14 19 -30 32 -35 30 -4 -3 -14 3 -21 15 -16 25 -28 26
-28 3z"/>
<path d="M4750 1273 c0 -11 7 -27 16 -34 15 -12 16 -11 9 11 -10 35 -25 49
-25 23z"/>
<path d="M4981 1193 c11 -34 19 -42 19 -20 0 7 -7 22 -15 33 -13 17 -14 16 -4
-13z"/>
<path d="M740 1166 c-19 -7 -80 -21 -134 -30 -169 -29 -199 -50 -284 -204 -82
-148 -109 -213 -131 -315 -18 -81 -18 -94 -5 -145 8 -32 23 -68 33 -82 24 -34
84 -53 127 -41 29 8 43 5 92 -20 113 -59 202 -50 329 33 l74 48 85 -41 c72
-35 97 -42 167 -46 72 -5 94 -2 172 23 108 34 386 170 435 212 30 26 33 32 21
46 -7 9 -25 16 -38 16 -22 0 -24 -2 -13 -15 7 -9 11 -18 8 -20 -16 -16 -330
-158 -390 -177 -102 -31 -238 -31 -329 0 -100 34 -103 38 -102 118 l1 69 -10
-55 c-15 -85 -27 -101 -119 -150 -77 -41 -90 -45 -154 -44 -56 0 -80 5 -121
26 -64 33 -74 59 -74 177 1 108 18 159 94 279 32 51 56 95 53 98 -9 10 -85
-87 -120 -154 -46 -89 -60 -153 -56 -264 4 -105 2 -108 -69 -89 -30 8 -43 19
-52 42 -18 42 -6 161 23 240 30 83 159 300 197 332 21 18 64 33 147 53 131 30
167 45 183 74 12 23 8 23 -40 6z"/>
<path d="M7694 1089 c8 -84 18 -119 36 -119 14 0 12 27 -5 84 -8 27 -15 62
-15 77 0 15 -5 31 -11 35 -9 5 -10 -15 -5 -77z"/>
<path d="M2023 1148 c-5 -7 -20 -38 -33 -68 -12 -30 -29 -59 -36 -65 -7 -5
-27 -49 -44 -97 -18 -49 -43 -105 -57 -125 -37 -54 -74 -125 -68 -131 8 -8 33
18 56 57 12 20 35 50 50 66 33 35 47 67 106 239 41 123 48 152 26 124z"/>
<path d="M5284 1128 c3 -12 10 -52 16 -87 5 -35 11 -66 14 -68 9 -9 26 8 26
27 0 32 17 31 30 0 7 -17 38 -48 74 -73 78 -56 86 -60 86 -49 0 5 -26 28 -59
50 -44 31 -65 55 -86 97 -29 56 -41 66 -51 40 -11 -29 -23 -15 -26 32 -2 27
-8 48 -16 51 -9 3 -11 -3 -8 -20z"/>
<path d="M11225 1140 c-8 -14 8 -18 85 -23 80 -4 450 -121 450 -141 0 -12 157
-92 378 -190 126 -57 260 -132 339 -190 59 -43 223 -217 223 -236 0 -5 -9 -10
-20 -10 -29 0 -25 -15 16 -60 50 -56 69 -54 60 6 -3 26 -11 53 -17 60 -6 7 -8
21 -5 31 7 23 -117 170 -195 230 -111 85 -276 174 -451 244 -57 22 -171 74
-253 115 -83 41 -218 97 -300 124 -128 43 -160 50 -227 50 -42 0 -80 -5 -83
-10z"/>
<path d="M2608 923 c-26 -27 -53 -82 -44 -90 2 -2 14 12 26 31 12 20 36 47 53
61 28 21 29 25 11 25 -11 0 -32 -12 -46 -27z"/>
<path d="M7690 886 c0 -7 6 -19 14 -25 8 -6 23 -34 35 -61 16 -37 27 -50 42
-50 19 0 19 3 -10 58 -16 31 -32 65 -35 75 -6 20 -46 23 -46 3z"/>
<path d="M846 780 c-39 -36 -65 -80 -47 -80 9 0 111 104 111 113 0 16 -23 4
-64 -33z"/>
<path d="M4845 800 c-3 -5 -1 -10 4 -10 6 0 11 5 11 10 0 6 -2 10 -4 10 -3 0
-8 -4 -11 -10z"/>
<path d="M4306 724 c-37 -31 -65 -58 -62 -62 4 -3 19 7 34 21 16 15 33 27 38
27 13 0 69 58 63 65 -3 3 -36 -20 -73 -51z"/>
<path d="M4657 759 c-27 -10 -53 -16 -59 -13 -5 3 -24 -7 -41 -23 -18 -16 -49
-42 -70 -57 -57 -42 -36 -44 30 -4 32 20 86 50 120 67 34 17 64 35 68 41 8 12
10 13 -48 -11z"/>
<path d="M4415 742 c-5 -4 -17 -16 -25 -27 -11 -15 -7 -14 13 4 24 22 32 31
25 31 -2 0 -7 -4 -13 -8z"/>
<path d="M837 701 c-32 -36 -56 -95 -44 -108 3 -3 13 12 22 33 8 21 27 53 41
72 37 47 24 50 -19 3z"/>
<path d="M7765 715 c17 -14 35 -25 40 -25 6 0 -3 11 -20 25 -16 13 -34 24 -40
24 -5 0 4 -11 20 -24z"/>
<path d="M4436 708 c-9 -12 -14 -24 -11 -26 7 -7 55 27 55 38 0 18 -29 10 -44
-12z"/>
<path d="M6270 724 c0 -6 16 -26 36 -45 22 -20 32 -26 26 -14 -13 25 -62 72
-62 59z"/>
<path d="M6430 686 c0 -27 -15 -35 -23 -13 -2 6 -8 9 -12 5 -10 -10 25 -49 36
-42 5 3 9 17 9 31 0 25 1 25 44 -15 44 -40 143 -98 153 -88 3 2 -9 12 -25 20
-17 9 -60 38 -95 65 -89 67 -87 66 -87 37z"/>
<path d="M7690 701 c0 -5 9 -12 20 -16 10 -3 33 -24 50 -46 35 -43 50 -49 50
-19 0 24 -5 24 66 -1 56 -20 216 -44 259 -38 11 1 37 2 58 2 20 1 37 4 37 8 0
11 -94 34 -130 31 -19 -2 -62 3 -95 11 -33 8 -69 11 -80 7 -11 -4 -31 -4 -45
1 -14 4 -41 10 -61 13 -20 4 -46 17 -59 31 -23 24 -70 35 -70 16z"/>
<path d="M6640 676 c0 -41 52 -106 84 -105 20 0 20 1 -3 17 -14 9 -37 37 -53
61 -17 27 -28 38 -28 27z"/>
<path d="M8217 633 c-31 -8 -7 -23 38 -23 65 0 178 -17 380 -56 343 -67 501
-87 891 -114 353 -25 714 -38 1191 -45 l363 -5 337 -86 c327 -83 396 -106 498
-169 22 -14 97 -48 168 -75 104 -42 142 -52 210 -57 53 -3 93 -1 112 7 27 11
28 13 10 20 -11 4 -55 10 -98 14 -94 8 -240 57 -376 126 -53 26 -121 58 -151
70 -51 21 -344 101 -625 171 l-120 31 -475 8 c-501 9 -687 18 -1125 50 -325
24 -316 23 -585 66 -386 62 -474 74 -550 73 -41 -1 -83 -3 -93 -6z"/>
<path d="M1740 616 c0 -9 5 -16 10 -16 6 0 10 4 10 9 0 6 -4 13 -10 16 -5 3
-10 -1 -10 -9z"/>
<path d="M7743 565 c0 -39 -1 -77 -4 -85 -7 -25 24 -17 40 11 17 31 9 87 -18
120 -18 23 -18 23 -18 -46z"/>
<path d="M4393 559 c-24 -6 -43 -13 -43 -17 0 -4 37 -7 83 -8 52 0 148 -14
267 -38 143 -30 223 -40 355 -47 254 -13 939 -28 1292 -29 l312 0 127 -40 c70
-22 129 -38 131 -36 6 6 -124 66 -141 66 -6 0 -22 7 -35 16 -34 24 -182 33
-571 34 -550 3 -1168 24 -1285 45 -22 4 -94 18 -160 31 -143 28 -274 37 -332
23z"/>
<path d="M4241 534 c0 -11 3 -14 6 -6 3 7 2 16 -1 19 -3 4 -6 -2 -5 -13z"/>
<path d="M7696 513 c-3 -3 -6 -24 -6 -45 0 -34 3 -38 25 -38 22 0 24 3 15 19
-5 11 -10 29 -10 40 0 21 -13 35 -24 24z"/>
<path d="M7406 431 c-4 -6 -4 -12 1 -13 8 -2 -251 -18 -342 -21 -27 -1 -71 2
-97 7 -59 10 -66 -8 -11 -30 25 -11 53 -14 87 -10 28 3 168 10 311 15 257 9
351 17 360 31 2 4 -35 10 -83 13 -48 4 -117 9 -153 13 -45 4 -69 3 -73 -5z"/>
<path d="M12650 282 c0 -5 25 -37 55 -72 30 -35 57 -71 60 -82 4 -10 13 -18
21 -18 33 0 -9 82 -70 138 -44 40 -66 52 -66 34z"/>
<path d="M12690 172 c0 -30 31 -112 42 -112 13 0 4 81 -12 110 -13 25 -30 26
-30 2z"/>
<path d="M12358 94 c-21 -6 -24 -24 -5 -24 6 0 70 -5 140 -11 94 -9 131 -9
139 -1 8 8 4 14 -16 21 -30 12 -231 23 -258 15z"/>
</g>
</svg>
